<?xml version="1.0" standalone="no"?>
<!DOCTYPE svg PUBLIC "-//W3C//DTD SVG 20010904//EN"
 "http://www.w3.org/TR/2001/REC-SVG-20010904/DTD/svg10.dtd">
<svg version="1.0" xmlns="http://www.w3.org/2000/svg"
 width="3520.000000pt" height="3520.000000pt" viewBox="0 0 3520.000000 3520.000000"
 preserveAspectRatio="xMidYMid meet">
<metadata>
Created by potrace 1.14, written by Peter Selinger 2001-2017
</metadata>
<g transform="translate(0.000000,3520.000000) scale(0.100000,-0.100000)"
fill="#000000" stroke="none">
<path d="M21740 30693 c-51 -8 -185 -45 -253 -68 -191 -67 -370 -210 -495
-397 -42 -62 -71 -91 -148 -148 -153 -114 -261 -224 -316 -322 -88 -158 -457
-846 -840 -1563 -339 -637 -403 -764 -552 -1100 -171 -384 -328 -726 -651
-1420 -97 -209 -252 -549 -345 -755 -262 -586 -578 -1271 -593 -1286 -3 -3
-42 66 -87 153 -46 87 -425 793 -843 1568 -1004 1864 -941 1745 -1370 2590
-513 1013 -782 1526 -949 1812 -49 84 -110 201 -137 261 -99 226 -224 360
-424 457 -140 67 -262 96 -437 102 -167 6 -268 -8 -407 -59 -161 -58 -345
-208 -453 -367 -60 -89 -119 -221 -130 -289 -6 -31 -30 -99 -55 -151 -44 -90
-49 -111 -110 -435 -430 -2293 -814 -4876 -1114 -7486 -217 -1886 -474 -4815
-706 -8058 -49 -685 -178 -2312 -325 -4102 -27 -333 -70 -823 -95 -1090 -62
-678 -166 -1839 -172 -1937 -11 -173 36 -345 137 -502 151 -233 369 -379 650
-436 117 -24 370 -30 456 -12 319 68 603 340 698 669 31 107 35 148 101 908
31 349 80 903 111 1230 178 1925 296 3343 349 4195 32 507 303 3704 480 5655
378 4158 593 5945 992 8228 5 30 9 25 58 -85 69 -157 110 -237 363 -713 915
-1722 1704 -3154 2305 -4179 66 -113 129 -226 140 -251 10 -25 39 -65 62 -90
28 -29 48 -61 55 -90 42 -159 170 -347 311 -456 378 -291 991 -243 1339 105
102 102 161 202 403 681 420 829 826 1690 1242 2635 550 1251 866 1934 1209
2620 163 327 211 415 217 400 22 -53 229 -1399 469 -3040 257 -1761 479 -3205
585 -3815 58 -330 291 -1615 620 -3415 486 -2658 524 -2874 750 -4285 350
-2181 618 -4019 805 -5520 45 -361 56 -417 109 -540 97 -225 268 -403 496
-516 140 -69 237 -94 390 -101 317 -14 571 80 776 288 110 113 190 242 240
389 28 83 33 112 36 225 4 120 -1 175 -71 695 -322 2388 -835 5702 -1221 7887
-184 1036 -853 4707 -945 5178 -123 635 -285 1715 -490 3280 -233 1778 -464
3220 -681 4260 -96 457 -451 1846 -503 1968 -137 316 -429 568 -736 633 -60
13 -241 17 -300 7z"/>
</g>
</svg>
